<?xml version="1.0" encoding="utf-8"?>
<!-- Generator: Adobe Illustrator 23.0.1, SVG Export Plug-In . SVG Version: 6.00 Build 0)  -->
<svg version="1.1" xmlns="http://www.w3.org/2000/svg" xmlns:xlink="http://www.w3.org/1999/xlink" x="0px" y="0px"
	 viewBox="0 0 1286.85 1084.56" style="enable-background:new 0 0 1286.85 1084.56;" xml:space="preserve">
<style type="text/css">
	.st0{fill:#FFFFFF;}
	.st1{fill:#3B3A3C;}
	.st2{fill:#6D6D6C;}
	.st3{fill:#C9AC7D;}
	.st4{fill:#8D7858;}
	.st5{fill:#D8C89E;}
	.st6{fill:#9B7B52;}
	.st7{fill:#D2AE83;}
	.st8{fill:#3C3B3D;}
	.st9{fill:#D3AF84;}
</style>
<g id="Layer_2">
	<rect class="st0" width="1283.62" height="1090"/>
</g>
<g id="Layer_1">
	<g>
		<g>
			<g>
				<g>
					<path class="st6" d="M435.28,476.44c-70.22,25.02-210.04,74.85-210.04,74.85s48.5,17.87,72.34,26.54
						c25.83,9.4,51.67,18.8,77.5,28.21c21.05,7.67,42.09,15.35,63.14,22.99c0.93,0.34,1.31,0.73,1.3,1.78
						c-0.04,20.39-0.03,40.79-0.03,61.18c0,0.38,0,0.76,0,1.3c-2.65-1.01-5.17-1.96-7.68-2.92c-30.32-11.62-60.63-23.24-90.95-34.86
						c-25.42-9.74-50.84-19.48-76.26-29.23c-30.82-11.81-61.64-23.62-92.46-35.44c-7.06-2.7-14.11-5.42-21.18-8.1
						c-0.73-0.28-1-0.61-1-1.41c0.02-19.51,0.02-39.01,0-58.52c0-0.82,0.32-1.11,1.02-1.38c20.17-7.71,40.33-15.44,60.49-23.16
						c39.1-14.99,78.2-29.97,117.3-44.96c12.67-4.86,39.38-15.1,39.38-15.1s40.9,23.3,60.76,34.6
						C430.96,473.98,432.99,475.13,435.28,476.44z"/>
				</g>
				<g>
					<path class="st6" d="M294.46,556.91c70.23-25.11,140.23-50.14,210.48-75.26c-0.57-0.26-0.92-0.44-1.28-0.57
						c-34.33-12.55-68.67-25.05-102.98-37.66c-34.45-12.66-69.08-24.83-103.66-37.13c-1.96-0.7-3.91-1.44-5.89-2.08
						c-0.76-0.25-0.99-0.6-0.99-1.4c0.03-7.84,0.02-15.68,0.02-23.52c0-12.71,0-25.42,0-38.12c0-1.35,0-1.35,1.22-0.88
						c29.79,11.47,59.59,22.93,89.38,34.4c36.31,13.97,72.62,27.94,108.93,41.92c29.69,11.43,59.37,22.86,89.06,34.28
						c0.68,0.26,0.92,0.6,0.92,1.33c-0.02,19.35-0.02,38.7,0,58.05c0,0.8-0.26,1.12-0.99,1.4c-29.75,11.38-59.48,22.79-89.22,34.18
						c-36.04,13.81-72.08,27.62-108.12,41.43c-5.9,2.26-18.83,7.05-18.83,7.05S306.5,563.61,294.46,556.91z"/>
				</g>
			</g>
		</g>
		<g>
			<g>
				<path class="st3" d="M430,481.77c-0.78,1.01-1.71,1.88-2.67,2.71c-0.5,0.43-0.53,0.72-0.05,1.2c1.56,1.55,3.09,3.13,4.59,4.74
					c0.53,0.57,0.85,0.52,1.37-0.01c1.48-1.52,2.99-3.01,4.56-4.44c0.65-0.59,0.55-0.94,0-1.46c-0.79-0.74-1.54-1.51-2.29-2.3
					c-1.1-1.16-1.12-1.2-2.2-0.08c-0.5,0.51-0.79,0.53-1.29,0c-0.96-1.01-1-0.97,0.35-1.45c2.83-1.01,5.66-2.03,8.49-3.03
					c0.39-0.14,0.75-0.39,1.48-0.02c-0.52,0.39-1.03,0.78-1.55,1.17c-0.56,0.42-0.54,0.78-0.03,1.29c2.02,2.01,4.01,4.07,6,6.11
					c3.1,3.17,6.19,6.35,9.44,9.68c-1.77,0.63-3.41,1.22-5.05,1.8c-0.24,0.08-0.46,0.02-0.63-0.17c-0.32-0.38-0.62-0.24-0.85,0.08
					c-0.64,0.92-1.62,1.24-2.61,1.58c-3.02,1.06-6.03,2.14-9.04,3.2c-0.29,0.1-0.59,0.15-0.89,0.22l-0.05-0.05
					c2.05-2.36,4.42-4.4,6.6-6.64c0.67-0.69,1.34-1.39,2.07-2.02c0.52-0.45,0.44-0.8,0.02-1.23c-1.03-1.04-2.08-2.07-3.07-3.15
					c-0.51-0.56-0.77-0.17-1.1,0.16c-2.78,2.74-5.58,5.45-8.32,8.22c-0.63,0.64-0.97,0.68-1.61,0.01c-2.66-2.8-5.4-5.52-8.06-8.31
					c-0.57-0.6-0.9-0.61-1.45-0.02c-0.84,0.91-1.7,1.81-2.65,2.58c-0.77,0.63-0.73,1.01-0.05,1.7c3.36,3.35,6.67,6.76,9.99,10.15
					c0.32,0.32,0.62,0.66,1.02,1.09c-1.8,0.65-3.46,1.24-5.12,1.85c-0.52,0.19-0.78-0.18-1.07-0.48c-2.92-2.98-5.85-5.94-8.73-8.95
					c-0.56-0.58-0.91-0.64-1.47-0.04c-0.9,0.96-1.82,1.89-2.81,2.76c-0.59,0.52-0.55,0.82-0.02,1.35c2.25,2.22,4.46,4.49,6.68,6.75
					c0.94,0.95,0.94,0.95-0.35,1.4c-1.02,0.36-2.06,0.67-3.04,1.11c-0.94,0.42-1.58,0.32-2.31-0.49c-1.55-1.72-3.24-3.31-4.84-4.99
					c-0.47-0.5-0.79-0.58-1.3-0.06c-1.02,1.05-2.08,2.06-3.16,3.06c-0.48,0.44-0.23,0.7,0.11,1.02c1.36,1.26,2.71,2.52,4.27,3.99
					c-1.99,0.73-3.61,1.31-5.22,1.91c-0.41,0.15-0.65-0.07-0.9-0.33c-0.59-0.61-1.23-1.18-1.79-1.81c-0.44-0.5-0.73-0.6-1.26-0.04
					c-0.97,1.04-2,2.04-3.08,2.97c-0.87,0.75,0.22,0.99,0.3,1.6c-2.7,0.97-5.47,1.81-8.1,2.96c-1.86,0.82-3.01,0.54-4.43-0.97
					c-4.84-5.15-9.85-10.12-14.8-15.16c-0.16-0.16-0.3-0.34-0.6-0.68c4.21-1.47,8.3-2.89,12.38-4.31c0.06,0.07,0.13,0.13,0.19,0.2
					c-1.35,1.37-2.69,2.76-4.07,4.1c-0.5,0.48-0.55,0.79-0.02,1.29c0.98,0.93,1.92,1.9,2.81,2.91c0.5,0.57,0.82,0.55,1.36,0.01
					c2.64-2.65,5.32-5.27,7.99-7.89c1.82-1.78,3.65-3.55,5.46-5.34c0.25-0.25,0.5-0.44,0.85-0.56c11.65-4.14,23.29-8.3,34.94-12.44
					c0.18-0.06,0.38-0.07,0.57-0.1C429.93,481.69,429.96,481.73,430,481.77z M417.12,487.65c-4.07,1.42-8.14,2.84-12.2,4.29
					c-0.37,0.13-0.67,0.51-0.97,0.8c-2.73,2.67-5.45,5.35-8.18,8.02c-4.38,4.29-8.76,8.59-13.15,12.87
					c-0.48,0.47-0.32,0.74,0.05,1.12c0.98,0.98,1.98,1.95,2.91,2.98c0.46,0.51,0.75,0.57,1.27,0.04c1.46-1.49,2.98-2.91,4.47-4.37
					c5.46-5.35,10.91-10.69,16.36-16.05c3.22-3.16,6.41-6.35,9.62-9.52c0.08-0.09,0.32-0.12,0.19-0.28
					C417.39,487.44,417.22,487.53,417.12,487.65z"/>
				<path class="st3" d="M286.49,554.55c1.39-0.84,1.42-0.87,0.21-2.13c-2.32-2.43-4.7-4.8-7.02-7.23c-0.47-0.5-0.75-0.44-1.19,0.02
					c-0.96,1-1.95,1.99-2.97,2.92c-0.57,0.52-0.52,0.85,0.01,1.38c2.78,2.79,5.5,5.64,8.28,8.42c0.6,0.6,0.67,0.94,0.02,1.55
					c-2.03,1.9-3.98,3.88-5.99,5.8c-0.59,0.56-0.4,0.75,0.23,0.97c1.49,0.52,2.98,1.04,4.45,1.63c0.66,0.26,1.1,0.18,1.61-0.35
					c2.5-2.52,5.08-4.97,7.57-7.5c0.64-0.65,1.11-0.71,1.85-0.23c1,0.65,2.06,1.23,3.13,1.74c0.8,0.38,0.69,0.68,0.14,1.21
					c-2.29,2.19-4.55,4.4-6.82,6.61c-0.9,0.88-0.9,0.88,0.27,1.31c1.38,0.5,2.77,0.96,4.12,1.53c0.73,0.31,1.16,0.14,1.69-0.4
					c2-2.04,4.08-4,6.08-6.04c0.56-0.57,0.97-0.64,1.67-0.22c1.82,1.09,3.69,2.08,5.43,3.04c-2.33,2.42-4.66,4.83-6.99,7.24
					c-0.47,0.49-0.93,0.15-1.38-0.01c-6.05-2.19-12.11-4.38-18.15-6.58c-15.87-5.77-31.73-11.55-47.6-17.33
					c-0.32-0.12-0.63-0.25-1.22-0.49c1.96-0.71,3.67-1.34,5.38-1.95c5.52-1.97,11.05-3.91,16.55-5.93c0.89-0.33,1.39-0.12,1.99,0.51
					c2.59,2.71,5.23,5.36,7.83,8.06c0.54,0.56,0.87,0.62,1.47,0.03c5.19-5.13,10.41-10.23,15.62-15.33
					c1.41-1.38,2.84-2.73,4.23-4.12c0.29-0.29,0.6-0.44,0.98-0.57c3.89-1.37,7.77-2.75,11.65-4.16c0.64-0.23,1.11-0.26,1.64,0.29
					c5.36,5.5,10.75,10.98,16.12,16.47c0.16,0.16,0.26,0.36,0.45,0.63c-1.67,0.6-3.27,1.14-4.84,1.76
					c-0.57,0.22-0.78-0.15-1.05-0.44c-3.51-3.59-7.01-7.18-10.52-10.77c-1.46-1.49-2.94-2.96-4.38-4.46
					c-0.47-0.49-0.78-0.59-1.3-0.04c-0.95,1.01-1.94,1.99-2.97,2.93c-0.52,0.47-0.4,0.73,0.03,1.17c4.19,4.27,8.36,8.56,12.54,12.85
					c1.08,1.11,1.09,1.1-0.31,1.6c-4.94,1.76-9.9,3.45-14.79,5.34C288.67,555.89,287.63,555.44,286.49,554.55z M287.3,536.74
					c-0.17,0.13-0.34,0.22-0.47,0.35c-1.1,1.08-2.19,2.18-3.31,3.24c-0.46,0.43-0.24,0.69,0.09,1.03c3.24,3.3,6.48,6.61,9.7,9.93
					c0.34,0.35,0.66,0.42,1.12,0.24c1.55-0.59,3.11-1.15,4.68-1.67c0.69-0.23,0.68-0.45,0.22-0.92c-3.83-3.91-7.66-7.84-11.49-11.75
					C287.7,537.05,287.51,536.91,287.3,536.74z M257.39,549.5c-0.11-0.16-0.18-0.31-0.28-0.41c-1.13-1.16-2.28-2.31-3.41-3.47
					c-0.36-0.37-0.6-0.15-0.86,0.11c-2.65,2.59-5.3,5.18-7.95,7.76c-0.4,0.39-0.5,0.64,0.15,0.86c1.67,0.58,3.34,1.18,4.99,1.82
					c0.47,0.18,0.71,0.01,1-0.28c1.95-1.93,3.9-3.85,5.85-5.77C257.07,549.93,257.22,549.71,257.39,549.5z M276.78,558.66
					c-0.11-0.16-0.18-0.29-0.28-0.39c-1.69-1.74-3.39-3.48-5.07-5.23c-0.38-0.4-0.65-0.22-0.96,0.09c-1.02,1-2.02,2.01-3.08,2.96
					c-0.55,0.5-0.59,0.82-0.02,1.36c1.09,1.02,1.08,1.08-0.05,2.18c-0.48,0.47-0.62,0.78-0.04,1.28c0.7,0.6,1.3,1.32,1.98,1.94
					c0.91,0.84,2.27,1.06,2.87,0.48c1.41-1.37,2.8-2.76,4.19-4.15C276.47,559.03,276.61,558.85,276.78,558.66z M259.19,552.58
					c-0.15,0.09-0.29,0.16-0.39,0.26c-1.43,1.41-2.85,2.83-4.29,4.23c-0.43,0.42-0.16,0.54,0.24,0.68c2.47,0.89,4.92,1.8,7.39,2.69
					c0.28,0.1,0.64,0.28,0.86-0.03c0.27-0.39-0.09-0.68-0.35-0.85c-1.19-0.8-0.95-1.52,0.06-2.26c0.51-0.37,0.54-0.73,0.04-1.2
					c-1.04-0.98-2.02-2.02-3.02-3.04C259.56,552.91,259.39,552.76,259.19,552.58z M244.93,548.12c-2.84,1.02-5.64,2.01-8.74,3.12
					c1.49,0.54,2.65,0.96,3.8,1.38c0.25,0.09,0.51,0.24,0.75-0.01C242.11,551.14,243.49,549.67,244.93,548.12z"/>
				<path class="st3" d="M335.7,515.19c-1.22,1.24-2.21,2.28-3.25,3.29c-4.06,3.96-8.12,7.93-12.21,11.86
					c-0.64,0.62-0.62,0.96,0.02,1.53c1,0.91,1.93,1.89,2.85,2.88c0.42,0.46,0.67,0.4,1.09-0.01c4.18-4.12,8.38-8.22,12.58-12.32
					c4.06-3.96,8.13-7.92,12.18-11.89c0.39-0.39,0.72-0.52,1.16-0.07c5.54,5.65,11.09,11.3,16.63,16.95
					c0.07,0.07,0.09,0.2,0.17,0.38c-1.68,0.61-3.35,1.2-5.01,1.82c-0.64,0.24-0.92-0.24-1.25-0.58c-3.38-3.44-6.77-6.88-10.11-10.36
					c-0.76-0.8-1.17-0.94-2.05-0.06c-6.81,6.73-13.67,13.4-20.55,20.07c-0.49,0.48-0.39,0.72,0.03,1.08
					c0.46,0.41,0.9,0.84,1.52,1.42c-1.87,0.67-3.54,1.28-5.22,1.88c-0.32,0.11-0.5-0.15-0.68-0.34
					c-5.45-5.58-10.89-11.17-16.34-16.74c-0.47-0.48-0.33-0.63,0.23-0.82c1.35-0.45,2.7-0.93,4.03-1.44
					c0.48-0.19,0.79-0.06,1.12,0.29c0.79,0.85,1.63,1.64,2.39,2.52c0.59,0.68,1,0.69,1.65,0.03c2.25-2.28,4.57-4.49,6.85-6.74
					c0.42-0.42,0.89-0.69,1.45-0.89c3.28-1.14,6.54-2.32,9.81-3.48C334.99,515.38,335.21,515.33,335.7,515.19z"/>
				<path class="st3" d="M443.79,462.4c1.87,0.68,3.74,1.37,5.61,2.05c1.16,0.42,2.3,0.88,3.48,1.25c0.8,0.26,0.75,0.52,0.21,1.04
					c-3.02,2.92-6.02,5.87-9.02,8.82c-1.53,1.51-1.52,1.52-3.44,0.44c-0.91-0.51-1.81-1.03-2.79-1.59c0.77-0.62,0.63-1.09-0.03-1.72
					c-1.51-1.43-2.93-2.96-4.35-4.48c-0.49-0.52-0.82-0.53-1.3,0c-0.6,0.65-1.24,1.61-1.95,1.69c-0.71,0.09-1.55-0.72-2.31-1.17
					c-0.78-0.46-2.06-0.69-2.16-1.47c-0.07-0.55,1.07-1.28,1.7-1.89c1.6-1.57,3.24-3.09,4.8-4.69c0.55-0.56,0.85-0.51,1.36,0.02
					c2.7,2.81,5.45,5.56,8.14,8.38c0.57,0.6,0.89,0.62,1.45,0.02c0.95-1.01,1.97-1.96,2.99-2.9c0.46-0.42,0.46-0.72-0.01-1.1
					c-0.91-0.75-1.8-1.53-2.7-2.3C443.56,462.68,443.68,462.54,443.79,462.4z"/>
				<path class="st3" d="M411.72,458.04c-0.49-0.51-0.59-0.8,0.01-1.36c1.47-1.39,2.85-2.89,4.32-4.41
					c-1.43-0.53-2.86-0.99-4.23-1.59c-0.91-0.39-1.56-0.36-2.21,0.45c-0.53,0.66-1.22,1.18-1.8,1.8c-0.38,0.4-0.66,0.4-1.04,0.01
					c-1.04-1.09-2.1-2.16-3.16-3.22c-0.34-0.34-0.38-0.62,0.03-0.94c0.69-0.53,0.67-0.83-0.23-1.16
					c-10.02-3.64-20.45-7.48-30.46-11.14c-0.41,0.14-1.1,0.4-1.1,0.4l13.32,7.5l1.34-1.19l4.9,2.28l-1.02,1.37
					c0,0,12.47,7.69,15.9,9.62c2.61,1.48,5.25,2.92,7.87,4.38c0.03-0.04,0.06-0.08,0.09-0.12
					C413.58,459.66,412.58,458.92,411.72,458.04z"/>
				<path class="st3" d="M465.12,470.44c-0.18,0.2-0.38,0.43-0.6,0.65c-2.65,2.59-5.28,5.19-7.96,7.74
					c-0.62,0.59-0.64,0.91-0.01,1.53c3.49,3.49,6.91,7.05,10.38,10.56c0.68,0.69,0.63,0.98-0.3,1.25c-1.03,0.31-2.06,0.66-3.04,1.1
					c-0.92,0.41-1.53,0.29-2.27-0.48c-3.99-4.19-8.02-8.33-12.1-12.44c-0.69-0.7-0.64-1.02,0.03-1.67c3.34-3.2,6.63-6.45,9.92-9.71
					c0.51-0.51,0.95-0.63,1.62-0.35c1.25,0.51,2.52,0.94,3.79,1.42C464.79,470.1,465.07,470.08,465.12,470.44z"/>
				<path class="st3" d="M378.53,523.64c-1.7,0.62-3.32,1.21-4.93,1.81c-0.4,0.15-0.65-0.06-0.9-0.32
					c-5.55-5.68-11.1-11.36-16.8-17.19c1.8-0.65,3.47-1.26,5.15-1.86c0.38-0.14,0.56,0.17,0.77,0.39
					c5.42,5.54,10.84,11.09,16.26,16.63C378.2,523.23,378.31,523.39,378.53,523.64z"/>
				<path class="st3" d="M476.87,474.5c-1.47,1.57-2.82,3.09-4.28,4.52c-0.6,0.59-0.56,0.92-0.02,1.47
					c2.07,2.08,4.08,4.21,6.15,6.28c0.59,0.59,0.72,0.88-0.22,1.17c-1.54,0.48-3.15,1.64-4.56,1.42c-1.42-0.22-2.34-2.08-3.49-3.22
					c-1.91-1.9-3.75-3.89-5.65-5.8c-0.48-0.48-0.58-0.74-0.03-1.26c2.07-1.97,4.08-3.99,6.11-6c0.31-0.31,0.59-0.57,1.1-0.38
					C473.64,473.33,475.3,473.93,476.87,474.5z"/>
				<path class="st3" d="M319.73,582.69c1.66-1.7,3.25-3.33,4.84-4.95c0.22-0.22,0.43-0.4,0.8-0.18c0.98,0.59,1.99,1.14,2.99,1.7
					c-0.05,0.12-0.06,0.15-0.08,0.19c-0.45,0.7-1.67,1.09-1.53,1.85c0.13,0.69,1.16,1.18,1.65,1.86c1.24,1.72,2.97,2.57,4.92,3.22
					c2.81,0.94,5.58,2.02,8.37,3.02c0.35,0.12,0.68,0.41,1.27,0.15c-1.34-1.37-2.63-2.7-3.92-4.03c0.05-0.07,0.11-0.14,0.16-0.21
					c2,1.11,4.01,2.21,6.01,3.32c1.42,0.79,13.02,7.24,13.02,7.24l-1.15,0.41C357.06,596.27,332.21,587.23,319.73,582.69z
					 M343.17,589.81l-0.08-0.05l-0.01,0.07L343.17,589.81z"/>
				<path class="st3" d="M336.94,538.52c2.21-2.3,4.38-4.6,6.59-6.85c1.68-1.7,3.44-3.32,5.13-5.02c0.55-0.55,0.91-0.6,1.48,0.01
					c1.47,1.58,3,3.11,4.53,4.63c0.49,0.49,0.56,0.75-0.21,0.99c-1.21,0.38-2.4,0.85-3.59,1.28c-0.55,0.2-1.08,0.46-1.53-0.21
					c-0.19-0.29-0.47-0.23-0.67,0.03c-1.79,2.29-4.63,2.43-7.03,3.45C340.1,537.49,338.49,537.97,336.94,538.52z"/>
				<path class="st3" d="M420.05,464.29c-0.19-0.1-0.36-0.19-0.53-0.28c-1.2-0.68-2.39-1.4-3.62-2.04c-0.6-0.32-0.59-0.54-0.12-0.99
					c2.05-1.97,4.09-3.96,6.11-5.97c0.36-0.36,0.66-0.4,1.11-0.22c1.4,0.54,2.8,1.06,4.22,1.55c0.54,0.19,0.72,0.35,0.23,0.82
					c-2.33,2.24-4.64,4.5-6.96,6.75C420.35,464.04,420.2,464.15,420.05,464.29z"/>
				<path class="st3" d="M485.88,485.28c-0.39,0.05-0.58-0.21-0.79-0.43c-1.46-1.48-2.91-2.98-4.4-4.43
					c-0.42-0.42-0.51-0.72-0.01-1.1c0.27-0.21,0.58-0.42,0.77-0.7c1.24-1.88,2.79-1.76,4.53-0.81c0.5,0.27,1.07,0.43,1.62,0.61
					c0.68,0.23,1.5,0.37,0.48,1.26c-0.37,0.32,0.01,0.54,0.2,0.75c0.77,0.81,1.55,1.61,2.31,2.43c0.18,0.19,0.57,0.48,0.06,0.68
					C489.07,484.15,487.47,484.7,485.88,485.28z"/>
				<path class="st3" d="M319.42,574.37c-0.04,0.36-0.28,0.52-0.46,0.7c-1.62,1.58-3.27,3.15-4.87,4.76
					c-0.45,0.45-0.81,0.55-1.4,0.32c-1.25-0.5-2.51-0.96-3.79-1.38c-0.81-0.27-0.72-0.54-0.19-1.05c1.88-1.82,3.74-3.67,5.6-5.5
					c0.24-0.23,0.45-0.55,0.88-0.3c1.3,0.74,2.62,1.46,3.93,2.19C319.25,574.17,319.34,574.3,319.42,574.37z"/>
				<path class="st3" d="M273.14,537.41c-1.94,2.07-4.12,4.39-6.3,6.72c-0.27,0.29-0.51,0.26-0.78-0.01
					c-0.86-0.88-1.73-1.75-2.59-2.64c-0.29-0.29-0.27-0.52,0.15-0.67C266.94,539.62,270.26,538.43,273.14,537.41z"/>
			</g>
		</g>
		<path class="st7" d="M351.3,749.94c-0.03,0.02-0.08,0.06-0.09,0.05c-0.03-0.03-0.05-0.07-0.08-0.11c0.04,0,0.07-0.02,0.1-0.01
			C351.27,749.88,351.28,749.92,351.3,749.94z"/>
		<path class="st7" d="M424.94,657.51c-0.04,0.04-0.12,0.13-0.12,0.13c-0.16-0.14,0-0.14,0.08-0.17
			C424.89,657.46,424.94,657.51,424.94,657.51z"/>
		<path class="st8" d="M405.49,643c0.1-0.12,0.26-0.21,0.35-0.09c0.12,0.15-0.11,0.19-0.19,0.27
			C405.6,643.12,405.54,643.06,405.49,643z"/>
		<polygon class="st8" points="333.62,742.28 333.54,742.3 333.54,742.23 		"/>
		<g>
			<g>
				<g>
					<path class="st1" d="M645.34,551.76V535.3l71.18-90.58v-0.35H648.8v-16.45h91.1v16.45l-71.18,90.58v0.35h72.91v16.45H645.34z"
						/>
					<path class="st1" d="M841.04,512.1h-67.89c0.35,14.72,9.01,28.4,26.5,28.4c15.59,0,21.65-10.05,23.21-15.93h17.32
						c-4.68,16.97-17.67,29.79-40.87,29.79c-28.06,0-43.65-19.92-43.65-46.94c0-27.71,16.63-46.76,43.65-46.76
						c26.84,0,41.91,17.67,41.91,45.03C841.21,508.11,841.21,510.71,841.04,512.1z M823.55,498.76c0-13.86-9.7-24.25-24.77-24.25
						c-14.2,0-24.59,9.7-25.63,24.25H823.55z"/>
					<path class="st1" d="M935.77,490.45v61.31H918.8v-56.63c0-11.78-5.2-19.74-18.01-19.74c-14.55,0-23.9,8.83-23.9,22.17v54.21
						h-16.97v-88.33h16.97v11.08h0.35c4.68-6.75,13.86-13.68,29.1-13.68C922.61,460.83,935.77,470.18,935.77,490.45z"/>
					<path class="st1" d="M957.42,447.67v-18.36h19.22v18.36H957.42z M958.45,551.76v-88.33h16.97v88.33H958.45z"/>
					<path class="st1" d="M1038.64,538.08v13.68c-4.33,0.87-7.1,1.04-10.74,1.04c-14.55,0-23.38-5.54-23.38-25.98v-49.36H991.7
						v-14.03h12.82v-28.4h16.97v28.4h16.97v14.03h-16.97v49.88c0,9.35,2.6,11.43,9.87,11.43
						C1034.31,538.77,1035.7,538.6,1038.64,538.08z"/>
					<path class="st1" d="M1132.85,490.45v61.31h-16.97v-56.63c0-11.78-5.2-19.74-18.01-19.74c-14.55,0-23.9,8.83-23.9,22.17v54.21
						h-16.97V427.92h16.97v46.59h0.35c4.68-6.75,13.86-13.68,29.1-13.68C1119.69,460.83,1132.85,470.18,1132.85,490.45z"/>
				</g>
				<g>
					<path class="st1" d="M861.1,671.49l9.25-24.78h2.84l9.32,24.78h-2.7l-2.49-6.86H866.2l-2.49,6.86H861.1z M867.03,662.38h9.49
						l-4.71-13.27h-0.07L867.03,662.38z"/>
					<path class="st1" d="M898.42,646.71h2.25v24.78h-2.25v-2.88h-0.07c-1.01,1.73-2.88,3.33-5.96,3.33c-4.3,0-7.76-3.47-7.76-9.29
						c0-5.79,3.47-9.25,7.76-9.25c3.08,0,4.92,1.52,5.96,3.4h0.07V646.71z M898.42,662.65c0-4.44-2.36-7.28-5.75-7.28
						c-3.67,0-5.68,3.33-5.68,7.28c0,3.99,2.01,7.31,5.68,7.31C896.07,669.97,898.42,667.12,898.42,662.65z"/>
					<path class="st1" d="M910.31,671.49l-6.48-17.67h2.5l5.3,15.39h0.03l5.27-15.39h2.43l-6.48,17.67H910.31z"/>
					<path class="st1" d="M922.13,650.28v-2.91h2.91v2.91H922.13z M922.47,671.49v-17.67h2.25v17.67H922.47z"/>
					<path class="st1" d="M928.33,665.7h2.36c0.14,2.43,1.73,4.26,5.44,4.26c3.36,0,4.5-1.56,4.5-3.29c0-2.6-2.63-2.88-5.09-3.47
						c-3.26-0.83-6.55-1.63-6.55-5.06c0-2.88,2.29-4.75,6.27-4.75c4.61,0,6.76,2.46,7.07,5.37h-2.36c-0.31-1.56-1.25-3.4-4.68-3.4
						c-2.53,0-3.95,0.97-3.95,2.63c0,2.22,2.39,2.53,5.06,3.19c3.33,0.8,6.62,1.73,6.62,5.41c0,3.22-2.56,5.34-6.93,5.34
						C931.14,671.94,928.43,669.24,928.33,665.7z"/>
					<path class="st1" d="M945.66,662.69c0-5.51,3.19-9.32,8.49-9.32s8.49,3.81,8.49,9.32c0,5.48-3.19,9.29-8.49,9.29
						S945.66,668.16,945.66,662.69z M960.28,662.69c0-4.09-2.01-7.35-6.13-7.35s-6.13,3.26-6.13,7.35c0,4.05,2.01,7.31,6.13,7.31
						S960.28,666.74,960.28,662.69z"/>
					<path class="st1" d="M975.39,653.51v2.22c-0.35-0.07-0.73-0.1-1.07-0.1c-3.19,0-5.54,2.56-5.54,6v9.88h-2.25v-17.67h2.25v3.6
						h0.07c0.9-2.32,2.53-4.02,5.02-4.02C974.49,653.4,974.97,653.44,975.39,653.51z"/>
					<path class="st1" d="M978.34,677.55v-1.94c0.52,0.07,0.8,0.1,1.35,0.1c1.66,0,3.01-1.07,3.98-4.33l-7.14-17.57h2.49l5.75,14.73
						h0.07l5.48-14.73h2.43l-7.07,18.19c-1.73,4.4-3.29,5.68-5.65,5.68C979.48,677.69,979.06,677.66,978.34,677.55z"/>
					<path class="st1" d="M1002.97,663.28h2.63c0.35,3.85,2.7,6.45,7.87,6.45c4.57,0,6.13-2.18,6.13-4.92
						c0.03-3.67-2.53-4.3-7.62-5.44c-4.05-0.94-7.97-2.18-7.97-6.72c0-3.95,3.15-6.38,8.25-6.38c5.37,0,8.77,2.74,9.15,7.59h-2.63
						c-0.42-3.43-2.32-5.37-6.51-5.37c-3.64,0-5.61,1.49-5.61,4.05c0,3.33,2.95,4.02,6.58,4.82c5.09,1.11,9.01,2.36,9.01,7.38
						c0,4.02-2.77,7.21-8.66,7.21C1007.62,671.94,1003.32,668.86,1002.97,663.28z"/>
					<path class="st1" d="M1041.58,663.1h-14c0.03,3.57,1.94,6.93,6.1,6.93c3.64,0,5.06-2.49,5.41-3.95h2.29
						c-0.87,3.22-3.29,5.89-7.73,5.89c-5.41,0-8.42-3.95-8.42-9.32c0-5.65,3.33-9.29,8.42-9.29c5.09,0,7.97,3.57,7.97,8.49
						C1041.61,662.34,1041.61,662.83,1041.58,663.1z M1039.22,661.13c0-3.15-2.04-5.82-5.68-5.82c-3.43,0-5.79,2.53-5.96,5.82
						H1039.22z"/>
					<path class="st1" d="M1054.33,653.51v2.22c-0.35-0.07-0.73-0.1-1.07-0.1c-3.19,0-5.54,2.56-5.54,6v9.88h-2.25v-17.67h2.25v3.6
						h0.07c0.9-2.32,2.53-4.02,5.02-4.02C1053.43,653.4,1053.91,653.44,1054.33,653.51z"/>
					<path class="st1" d="M1062.16,671.49l-6.48-17.67h2.5l5.3,15.39h0.03l5.27-15.39h2.43l-6.48,17.67H1062.16z"/>
					<path class="st1" d="M1073.98,650.28v-2.91h2.91v2.91H1073.98z M1074.33,671.49v-17.67h2.25v17.67H1074.33z"/>
					<path class="st1" d="M1080.46,662.65c0-5.51,3.4-9.25,8.46-9.25c4.3,0,7.21,2.88,7.59,6.62h-2.36
						c-0.14-1.98-1.56-4.64-5.23-4.64c-4.33,0-6.1,3.67-6.1,7.28c0,3.64,1.77,7.35,6.1,7.35c3.71,0,5.09-2.67,5.23-4.82h2.36
						c-0.24,3.81-3.29,6.76-7.59,6.76C1083.86,671.94,1080.46,668.2,1080.46,662.65z"/>
					<path class="st1" d="M1115.63,663.1h-14c0.03,3.57,1.94,6.93,6.1,6.93c3.64,0,5.06-2.49,5.41-3.95h2.29
						c-0.87,3.22-3.29,5.89-7.73,5.89c-5.41,0-8.42-3.95-8.42-9.32c0-5.65,3.33-9.29,8.42-9.29c5.09,0,7.97,3.57,7.97,8.49
						C1115.67,662.34,1115.67,662.83,1115.63,663.1z M1113.28,661.13c0-3.15-2.04-5.82-5.68-5.82c-3.43,0-5.79,2.53-5.96,5.82
						H1113.28z"/>
					<path class="st1" d="M1118.27,665.7h2.36c0.14,2.43,1.73,4.26,5.44,4.26c3.36,0,4.5-1.56,4.5-3.29c0-2.6-2.63-2.88-5.09-3.47
						c-3.26-0.83-6.55-1.63-6.55-5.06c0-2.88,2.29-4.75,6.27-4.75c4.61,0,6.76,2.46,7.07,5.37h-2.36c-0.31-1.56-1.25-3.4-4.68-3.4
						c-2.53,0-3.95,0.97-3.95,2.63c0,2.22,2.39,2.53,5.06,3.19c3.33,0.8,6.62,1.73,6.62,5.41c0,3.22-2.56,5.34-6.93,5.34
						C1121.07,671.94,1118.37,669.24,1118.27,665.7z"/>
				</g>
				<g>
					<path class="st1" d="M645.37,620.3v-38.76h27.43v5.15h-21.47v11.01h18.81v5.15h-18.81v12.31h22.01v5.15H645.37z"/>
					<path class="st1" d="M679.59,613.15c0-6.18,4.66-8.02,11.55-9.33c4.34-0.81,6.99-1.36,6.99-4.07c0-2.01-1.19-3.69-5.26-3.69
						c-4.83,0-6.29,1.52-6.56,5.2h-5.42c0.27-5.31,3.74-9.49,12.2-9.49c5.69,0,10.25,2.39,10.25,9.54v12.69
						c0,2.01,0.27,3.04,1.3,3.04c0.16,0,0.33,0,0.65-0.05v3.25c-0.92,0.22-1.84,0.33-2.71,0.33c-2.66,0-4.07-1.03-4.39-4.17h-0.11
						c-1.79,2.87-4.93,4.66-9.43,4.66C683.11,621.06,679.59,617.87,679.59,613.15z M698.13,609.52v-3.96
						c-0.87,0.81-3.25,1.41-6.07,2.01c-4.88,0.98-6.94,2.33-6.94,5.2c0,2.6,1.41,4.01,4.72,4.01
						C694.6,616.78,698.13,614.34,698.13,609.52z"/>
					<path class="st1" d="M710.87,611.09h5.37c0.22,3.2,2.17,5.69,7.32,5.69c4.66,0,5.91-2.06,5.91-4.07c0-3.47-3.69-3.85-7.26-4.61
						c-4.83-1.14-10.36-2.55-10.36-8.3c0-4.77,3.85-7.97,10.52-7.97c7.59,0,11.22,4.07,11.6,8.84h-5.37
						c-0.38-2.11-1.52-4.55-6.13-4.55c-3.58,0-5.1,1.41-5.1,3.47c0,2.87,3.09,3.14,6.99,4.01c5.1,1.19,10.63,2.66,10.63,8.84
						c0,5.37-4.12,8.62-11.39,8.62C715.2,621.06,711.03,616.73,710.87,611.09z"/>
					<path class="st1" d="M754.57,616.02v4.28c-1.36,0.27-2.22,0.33-3.36,0.33c-4.55,0-7.32-1.73-7.32-8.13v-15.45h-4.01v-4.39h4.01
						v-8.89h5.31v8.89h5.31v4.39h-5.31v15.61c0,2.93,0.81,3.58,3.09,3.58C753.21,616.24,753.64,616.18,754.57,616.02z"/>
					<path class="st1" d="M773.38,620.3l14.42-38.76h6.45l14.53,38.76h-6.51l-3.2-9.33h-16.21l-3.2,9.33H773.38z M784.66,605.94
						h12.74l-6.34-18.87h-0.11L784.66,605.94z"/>
					<path class="st1" d="M822.17,589.18v3.47h5.15v4.39h-5.15v23.26h-5.37v-23.26h-3.8v-4.39h3.8v-3.36c0-6.4,2.66-8.13,7.16-8.13
						c1.03,0,1.84,0.11,3.36,0.33v4.28c-1.08-0.11-1.52-0.16-2.28-0.16C822.83,585.61,822.17,586.26,822.17,589.18z"/>
					<path class="st1" d="M849.01,592.17v5.1c-0.65-0.11-1.14-0.16-1.79-0.16c-4.83,0-8.29,3.63-8.29,8.89v14.31h-5.31v-27.65h5.31
						v5.26h0.11c1.46-3.47,3.69-5.91,7.43-5.91C847.44,592,848.2,592.06,849.01,592.17z"/>
					<path class="st1" d="M855.08,587.72v-5.75h6.02v5.75H855.08z M855.41,620.3v-27.65h5.31v27.65H855.41z"/>
					<path class="st1" d="M868.15,606.48c0-8.67,5.37-14.64,13.55-14.64c7.1,0,11.82,4.61,12.47,10.84h-5.48
						c-0.27-2.87-1.9-6.45-6.94-6.45c-5.91,0-8.08,5.04-8.08,10.25s2.17,10.19,8.08,10.19c5.1,0,6.67-3.47,6.94-6.61h5.48
						c-0.38,6.34-5.31,11.06-12.42,11.06C873.52,621.12,868.15,615.15,868.15,606.48z"/>
					<path class="st1" d="M899.92,613.15c0-6.18,4.66-8.02,11.55-9.33c4.34-0.81,6.99-1.36,6.99-4.07c0-2.01-1.19-3.69-5.26-3.69
						c-4.83,0-6.29,1.52-6.56,5.2h-5.42c0.27-5.31,3.74-9.49,12.2-9.49c5.69,0,10.25,2.39,10.25,9.54v12.69
						c0,2.01,0.27,3.04,1.3,3.04c0.16,0,0.33,0,0.65-0.05v3.25c-0.92,0.22-1.84,0.33-2.71,0.33c-2.66,0-4.07-1.03-4.39-4.17h-0.11
						c-1.79,2.87-4.93,4.66-9.43,4.66C903.44,621.06,899.92,617.87,899.92,613.15z M918.46,609.52v-3.96
						c-0.87,0.81-3.25,1.41-6.07,2.01c-4.88,0.98-6.94,2.33-6.94,5.2c0,2.6,1.41,4.01,4.72,4.01
						C914.94,616.78,918.46,614.34,918.46,609.52z"/>
					<path class="st1" d="M948.17,620.3v-38.76h5.96v33.61h19.63v5.15H948.17z"/>
					<path class="st1" d="M980.16,587.72v-5.75h6.02v5.75H980.16z M980.49,620.3v-27.65h5.31v27.65H980.49z"/>
					<path class="st1" d="M1033.18,601.11v19.19h-5.31v-17.73c0-3.69-0.76-6.18-4.83-6.18c-3.96,0-6.45,2.77-6.45,6.94v16.97h-5.31
						v-17.73c0-3.69-0.76-6.18-4.83-6.18c-3.96,0-6.45,2.77-6.45,6.94v16.97h-5.31v-27.65h5.31v3.47h0.11
						c1.46-2.11,4.01-4.28,8.19-4.28c3.85,0,6.23,1.73,7.32,4.83h0.11c2.01-2.66,4.83-4.83,9.05-4.83
						C1030.37,591.84,1033.18,595.2,1033.18,601.11z"/>
					<path class="st1" d="M1041.59,587.72v-5.75h6.02v5.75H1041.59z M1041.91,620.3v-27.65h5.31v27.65H1041.91z"/>
					<path class="st1" d="M1068.59,616.02v4.28c-1.36,0.27-2.22,0.33-3.36,0.33c-4.55,0-7.32-1.73-7.32-8.13v-15.45h-4.01v-4.39
						h4.01v-8.89h5.31v8.89h5.31v4.39h-5.31v15.61c0,2.93,0.81,3.58,3.09,3.58C1067.23,616.24,1067.67,616.18,1068.59,616.02z"/>
					<path class="st1" d="M1101.23,607.89h-21.25c0.11,4.61,2.82,8.89,8.3,8.89c4.88,0,6.78-3.14,7.27-4.99h5.42
						c-1.46,5.31-5.53,9.33-12.79,9.33c-8.78,0-13.66-6.23-13.66-14.69c0-8.67,5.2-14.64,13.66-14.64c8.4,0,13.12,5.53,13.12,14.1
						C1101.28,606.64,1101.28,607.46,1101.23,607.89z M1095.75,603.71c0-4.34-3.04-7.59-7.75-7.59c-4.45,0-7.7,3.04-8.02,7.59
						H1095.75z"/>
					<path class="st1" d="M1128.33,581.54h5.31v38.76h-5.31v-3.25h-0.11c-1.52,1.95-4.17,4.01-8.51,4.01
						c-7.05,0-12.42-5.48-12.42-14.58s5.37-14.64,12.42-14.64c4.34,0,6.99,2.01,8.51,4.17h0.11V581.54z M1128.28,606.48
						c0-6.29-2.93-10.19-7.7-10.19c-5.2,0-7.75,4.77-7.75,10.19c0,5.42,2.55,10.19,7.75,10.19
						C1125.35,616.67,1128.28,612.71,1128.28,606.48z"/>
				</g>
				<g>
					<rect x="845.11" y="646.71" class="st1" width="2.4" height="24.78"/>
				</g>
			</g>
		</g>
	</g>
</g>
</svg>
